<svg xmlns="http://www.w3.org/2000/svg" style="display:none;">
  <!-- Иконка поиска -->
    <symbol id="trident" width="18" height="30" viewBox="0 0 18 30" fill="none">
        <path d="M7.97927 28.7399C6.43902 27.5747 5.32893 25.8269 4.95427 23.8016H0.000488281V2.46676C2.65083 3.79845 4.56574 6.71153 4.77388 9.73558L5.52319 15.7282L5.16241 15.6866C4.37147 15.6866 3.67767 16.4357 3.67767 17.1709C3.67767 17.8645 4.20496 18.4471 4.89877 18.5997L5.80072 18.8077C7.28546 15.9918 8.13191 13.2313 8.13191 10.5263C8.13191 8.08484 7.81276 5.6434 7.75725 3.14648C7.75725 2.03673 8.18741 1.02409 8.86734 0.233398C9.56115 1.02409 9.97743 2.03673 9.97743 3.14648C9.97743 5.6434 9.60278 8.08484 9.60278 10.5263C9.60278 13.2313 10.4492 15.9918 11.934 18.8077L12.8359 18.5997C13.5297 18.4471 14.057 17.8506 14.057 17.1709C14.057 16.4218 13.3632 15.6866 12.5723 15.6866L12.1976 15.7421L12.9469 9.74945C13.3216 6.7254 15.07 3.79845 17.7203 2.48063V23.8155H12.7804C12.4058 25.8269 11.3512 27.6441 9.75542 28.7538C9.38076 29.0174 9.06161 29.3364 8.85347 29.7665C8.6592 29.3364 8.34005 29.0174 7.97927 28.7399ZM2.34556 16.4357C2.5537 15.645 3.1365 14.9514 3.88581 14.5214L3.30301 9.58299C3.09487 8.04322 2.45656 6.66991 1.49911 5.5463V16.4218H2.34556V16.4357ZM4.84326 22.3173C4.84326 21.5682 4.95427 20.8885 5.10691 20.1949L4.4131 20.0285C3.40014 19.7094 2.6092 18.9187 2.34556 17.9061H1.49911V22.3173H4.84326ZM8.13191 22.3173C8.13191 21.4156 7.4381 20.6249 6.53615 20.514C6.38351 21.0966 6.2725 21.6792 6.2725 22.3173H8.13191ZM8.13191 23.8155H6.48065C6.74429 24.9807 7.32709 26.0488 8.13191 26.9505V23.8155ZM10.4631 19.1961C9.8248 18.0309 9.242 16.8102 8.86734 15.534C8.49269 16.8102 7.90989 18.0309 7.27159 19.1961C7.90989 19.3487 8.43718 19.7788 8.86734 20.2643C9.2975 19.7788 9.8248 19.3487 10.4631 19.1961ZM11.4761 22.3173C11.4761 21.6792 11.3651 21.0966 11.2124 20.514C10.3105 20.6249 9.61666 21.4156 9.61666 22.3173H11.4761ZM11.2679 23.8155H9.61666V26.9505C10.4215 26.0349 11.0043 24.9807 11.2679 23.8155ZM16.2495 22.3173V17.9061H15.403C15.1394 18.9187 14.3345 19.7094 13.3355 20.0285L12.6417 20.1949C12.7943 20.8885 12.9053 21.5682 12.9053 22.3173H16.2495ZM16.2495 16.4357V5.5463C15.292 6.65604 14.5982 8.04322 14.4456 9.58299L13.8628 14.5214C14.6121 14.9514 15.1949 15.6311 15.403 16.4357H16.2495Z" fill="#FFD101"/>
    </symbol>


    <symbol id="trident-big" width="44" height="72" viewBox="0 0 44 72" fill="none" xmlns="http://www.w3.org/2000/svg">
        <path d="M19.4518 69.4974C15.6968 66.6566 12.9904 62.3955 12.0771 57.458H0V5.44481C6.46139 8.6914 11.1298 15.7933 11.6373 23.1658L13.4641 37.7755L12.5845 37.674C10.6562 37.674 8.96476 39.5002 8.96476 41.2926C8.96476 42.9836 10.2503 44.4039 11.9417 44.776L14.1406 45.2832C17.7604 38.418 19.824 31.6881 19.824 25.0935C19.824 19.1414 19.0459 13.1893 18.9106 7.10193C18.9106 4.39643 19.9593 1.92767 21.6169 0C23.3084 1.92767 24.3233 4.39643 24.3233 7.10193C24.3233 13.1893 23.4099 19.1414 23.4099 25.0935C23.4099 31.6881 25.4735 38.418 29.0932 45.2832L31.2921 44.776C32.9836 44.4039 34.2691 42.9497 34.2691 41.2926C34.2691 39.4664 32.5776 37.674 30.6493 37.674L29.7359 37.8093L31.5627 23.1996C32.4761 15.8271 36.7386 8.69141 43.2 5.47863V57.4918H31.1568C30.2434 62.3955 27.6724 66.8257 23.782 69.5312C22.8686 70.1738 22.0905 70.9516 21.5831 72C21.1095 70.9516 20.3314 70.1738 19.4518 69.4974ZM5.71715 39.5002C6.22459 37.5726 7.64542 35.8816 9.4722 34.8333L8.05137 22.7938C7.54393 19.0399 5.98778 15.6919 3.65356 12.9526V39.4664H5.71715V39.5002ZM11.8064 53.8394C11.8064 52.0132 12.0771 50.356 12.4492 48.6651L10.7577 48.2593C8.28817 47.4815 6.3599 45.5538 5.71715 43.085H3.65356V53.8394H11.8064ZM19.824 53.8394C19.824 51.6412 18.1325 49.7135 15.9336 49.4429C15.5615 50.8633 15.2908 52.2837 15.2908 53.8394H19.824ZM19.824 57.4918H15.7983C16.441 60.3326 17.8619 62.9366 19.824 65.1348V57.4918ZM25.5073 46.2302C23.9511 43.3894 22.5303 40.4133 21.6169 37.302C20.7035 40.4133 19.2827 43.3894 17.7265 46.2302C19.2827 46.6022 20.5682 47.6505 21.6169 48.8342C22.6656 47.6505 23.9511 46.6022 25.5073 46.2302ZM27.9768 53.8394C27.9768 52.2837 27.7062 50.8633 27.3341 49.4429C25.1352 49.7135 23.4437 51.6412 23.4437 53.8394H27.9768ZM27.4694 57.4918H23.4437V65.1348C25.4058 62.9028 26.8266 60.3326 27.4694 57.4918ZM39.6141 53.8394V43.085H37.5505C36.9078 45.5538 34.9457 47.4815 32.5099 48.2593L30.8185 48.6651C31.1906 50.356 31.4612 52.0132 31.4612 53.8394H39.6141ZM39.6141 39.5002V12.9526C37.2799 15.6581 35.5884 19.0399 35.2163 22.7938L33.7955 34.8333C35.6222 35.8816 37.0431 37.5387 37.5505 39.5002H39.6141Z" fill="#FFD101"/>
    </symbol>


</svg>
